<svg width="36" height="36" viewBox="0 0 36 36" fill="none" xmlns="http://www.w3.org/2000/svg">
<path d="M30.3749 23.2283C30.8108 22.7648 30.9989 22.121 30.8812 21.4958C30.8016 20.8718 30.4123 20.3302 29.8462 20.0558C29.9781 19.6955 30.0016 19.3044 29.9137 18.9308C29.7981 18.4309 29.483 18.0001 29.0418 17.7383C28.5789 17.4557 28.031 17.3461 27.495 17.429C27.2193 17.4965 26.1337 17.8396 20.88 19.4877C20.835 18.8408 20.7787 18.2165 20.7337 17.9183C20.6795 17.5702 20.4761 17.2629 20.1767 17.0769C19.8773 16.8911 19.5117 16.845 19.1756 16.9508C18.2095 17.2625 17.32 17.7741 16.565 18.4525C15.81 19.131 15.2065 19.9609 14.7937 20.8883C14.5201 21.4377 14.1942 21.9595 13.8206 22.4465C13.7565 22.2893 13.6367 22.1611 13.4842 22.0865C13.3318 22.0118 13.1572 21.9958 12.9937 22.0415L6.80619 23.6896C6.21756 23.8482 5.71506 24.2322 5.40756 24.7587C5.10018 25.2851 5.01252 25.9115 5.16369 26.5021L6.61494 31.9639C6.7735 32.5526 7.15752 33.055 7.68405 33.3626C8.21046 33.6699 8.83683 33.7576 9.42744 33.6064L14.1524 32.3464C14.292 32.314 14.4181 32.2393 14.5137 32.1325C14.6094 32.0259 14.6697 31.8924 14.6868 31.7502L15.1087 31.6827C16.2318 31.591 17.3605 31.591 18.4837 31.6827C20.2949 31.992 22.1905 31.6545 23.968 31.2383C25.7016 30.8714 27.3754 30.2637 28.9405 29.4327L29.1261 29.3314C29.7842 28.9771 30.8136 28.4427 30.7292 27.2108C30.7064 26.774 30.5403 26.3569 30.2567 26.0239C30.6731 25.6353 30.9008 25.0856 30.8811 24.5164C30.8808 24.0385 30.6999 23.5786 30.3749 23.2283L30.3749 23.2283ZM9.08994 32.3126C8.85486 32.3778 8.60361 32.346 8.39208 32.2245C8.18067 32.103 8.0268 31.9016 7.96494 31.6657L6.52494 26.1814C6.45978 25.9464 6.49154 25.6951 6.61306 25.4836C6.73459 25.2722 6.93592 25.1183 7.17181 25.0564L12.5436 23.6277L13.2411 31.1877L9.08994 32.3126ZM28.9013 22.559C28.6984 22.6455 28.5415 22.8138 28.4693 23.0222C28.3971 23.2306 28.4162 23.4598 28.5221 23.6534C28.628 23.8469 28.8106 23.9868 29.0251 24.0384C29.4358 24.134 29.4808 24.359 29.4864 24.5615C29.4864 24.8709 29.2726 25.124 28.817 25.304C28.6082 25.3914 28.4475 25.5652 28.3765 25.7801C28.3056 25.9952 28.3314 26.2304 28.447 26.425C28.5628 26.6196 28.7573 26.7544 28.9801 26.7946C29.0788 26.8336 29.1645 26.8997 29.2272 26.9853C29.2899 27.071 29.3271 27.1726 29.3345 27.2784C29.3345 27.5765 29.132 27.7452 28.4739 28.094L28.277 28.2009C26.8257 28.9758 25.2734 29.5439 23.6645 29.8884C22.0632 30.3488 20.3879 30.494 18.7313 30.3159C17.4552 30.1994 16.1711 30.1994 14.8949 30.3159L14.5799 30.3665L14.0174 24.4097C14.8324 23.5508 15.5167 22.5767 16.048 21.5185C16.3634 20.8046 16.8184 20.161 17.3865 19.6256C17.9546 19.0904 18.624 18.6744 19.3555 18.4022C19.4174 18.9647 19.4849 19.9491 19.513 20.3204C19.4894 20.5734 19.5851 20.823 19.7718 20.9954C19.9553 21.151 20.2057 21.202 20.4355 21.1304L27.748 18.841C27.9434 18.8178 28.141 18.8593 28.3105 18.9591C28.4258 19.0231 28.5109 19.1303 28.5468 19.2572C28.5744 19.3633 28.5669 19.4756 28.5253 19.5769C28.4837 19.6784 28.4104 19.7636 28.3162 19.8197C28.1387 19.9502 28.0245 20.1494 28.0015 20.3684C27.9787 20.5874 28.0492 20.806 28.1958 20.9703C28.3424 21.1347 28.5516 21.2295 28.7718 21.2316C29.4186 21.2316 29.4749 21.5466 29.503 21.721C29.5311 21.8953 29.5818 22.2778 28.9012 22.5591L28.9013 22.559Z" fill="#C0C0C0"/>
<path d="M14.6758 8.16436L18.5626 15.1394L18.5907 15.4544C18.6086 15.6401 18.6996 15.8111 18.8436 15.9298C18.9875 16.0485 19.1728 16.1051 19.3585 16.0872C19.5443 16.0693 19.7153 15.9783 19.834 15.8343C19.9527 15.6904 20.0093 15.5051 19.9914 15.3194L19.0689 5.68937C19.0597 5.60429 19.0753 5.51828 19.1139 5.44187C19.1647 5.36054 19.2542 5.31156 19.3501 5.3125L27.8383 5.13812C27.9125 5.13918 27.9833 5.16953 28.0352 5.2225C28.1101 5.30722 28.1467 5.41925 28.1364 5.53186L27.5627 15.8594C27.5519 16.0459 27.6159 16.2291 27.7404 16.3684C27.865 16.5076 28.0399 16.5917 28.2264 16.6019H28.2658C28.4457 16.6021 28.6188 16.5335 28.7495 16.41C28.8803 16.2866 28.9588 16.1176 28.9689 15.9381L29.5314 5.57673C29.5733 5.06613 29.3976 4.56153 29.0477 4.18737C28.7234 3.85338 28.2757 3.6681 27.8102 3.67551L19.322 3.84988C18.8356 3.85996 18.3786 4.08437 18.0732 4.46302L15.4126 5.71738C14.9909 5.91426 14.6694 6.27661 14.5238 6.71863C14.3718 7.20073 14.4268 7.72432 14.6757 8.16427L14.6758 8.16436ZM15.857 7.1575C15.8794 7.08742 15.9305 7.03012 15.9977 7L17.6852 6.2125L18.2083 11.6518L15.8852 7.4836C15.8328 7.3827 15.8247 7.26458 15.8627 7.15735L15.857 7.1575Z" fill="#C0C0C0"/>
<path d="M23.5464 8.42871C22.5416 8.43972 21.619 8.98605 21.1261 9.86181C20.6333 10.7374 20.6452 11.8096 21.157 12.6743C21.669 13.5389 22.6035 14.0647 23.6082 14.0537H23.6645C24.3986 14.0387 25.0949 13.726 25.5938 13.1875C26.0983 12.649 26.3712 11.9339 26.3532 11.1962C26.3518 10.4689 26.0654 9.77109 25.5554 9.25266C25.0453 8.73423 24.3522 8.43633 23.6251 8.4231L23.5464 8.42871ZM24.947 11.2018C24.9583 11.5722 24.8228 11.932 24.5702 12.2031C24.3264 12.4674 23.9847 12.6199 23.6252 12.625C23.2639 12.6192 22.919 12.4735 22.6631 12.2185C22.407 11.9637 22.2599 11.6192 22.2527 11.2581C22.2328 10.8902 22.3616 10.5298 22.6103 10.2579C22.8589 9.98599 23.2063 9.82544 23.5745 9.81242C23.9405 9.81242 24.2914 9.95856 24.5491 10.2184C24.8067 10.4782 24.9501 10.8302 24.947 11.1962L24.947 11.2018Z" fill="#C0C0C0"/>
</svg>
