<svg width="11" height="11" viewBox="0 0 11 11" fill="none" xmlns="http://www.w3.org/2000/svg">
<path d="M0.373119 0.373117C0.926361 -0.180125 1.89342 -0.110048 2.53311 0.529639L10.2339 8.23048C10.8736 8.87016 10.9437 9.83722 10.3905 10.3905C9.83722 10.9437 8.87016 10.8736 8.23047 10.2339L0.529639 2.53311C-0.110048 1.89342 -0.180124 0.92636 0.373119 0.373117Z" fill="white"/>
<path d="M10.3905 0.373119C10.9437 0.926362 10.8736 1.89342 10.2339 2.53311L2.53311 10.2339C1.89342 10.8736 0.92636 10.9437 0.373117 10.3905C-0.180125 9.83722 -0.110048 8.87016 0.529639 8.23047L8.23048 0.529639C8.87016 -0.110047 9.83722 -0.180124 10.3905 0.373119Z" fill="white"/>
</svg>
